<svg xmlns="http://www.w3.org/2000/svg" xmlns:xlink="http://www.w3.org/1999/xlink" width="94" height="71" viewBox="0 0 94 71">
    <defs>
        <path id="un00wy007a" d="M0 0.194L94 0.194 94 71 0 71z"/>
        <path id="jzrynjugac" d="M1.482 56.26H34.227v2.494c-3.153 1.02-5.4 4.026-5.4 7.463v3.286c0 .827.665 1.497 1.483 1.497h33.661c.818 0 1.482-.67 1.482-1.497v-3.286c0-3.596-2.363-6.634-5.68-7.551v-2.407h32.745c.819 0 1.482-.67 1.482-1.497V1.69c0-.826-.663-1.496-1.482-1.496H1.482C.663.194 0 .864 0 1.69v53.072c0 .827.663 1.497 1.482 1.497zm61.007 9.957v1.79H31.792v-1.79c0-2.37 1.728-4.407 4.034-4.777h22.465c.042 0 .084-.003.126-.007 2.34.352 4.072 2.363 4.072 4.784zm-25.298-7.771h19.618v-2.187H37.191v2.187zM2.964 3.187h88.072v50.078H2.965V3.187z"/>
        <path id="aqyttpo3ye" d="M60.869 14.001l7.024 11.425c.198.32.529.546.909.622.378.076.775-.006 1.088-.223l4.826-3.345 1.301 3.641c-.136.27-.206.566-.206.871 0 1.107.939 2.008 2.094 2.008C79.06 29 80 28.099 80 26.992c0-.95-.704-1.756-1.637-1.958l-1.829-5.113c-.119-.335-.39-.589-.74-.696-.352-.107-.725-.049-1.023.158l-5.321 3.689-6.385-10.383c.082-.218.124-.449.124-.682C63.19 10.9 62.25 10 61.096 10 59.94 10 59 10.9 59 12.007c0 1.033.82 1.886 1.869 1.994"/>
        <path id="ollyabj8ag" d="M37.543 49.56c.282-.27.457-.645.457-1.06 0-.828-.697-1.5-1.56-1.5H9.56c-.43 0-.82.168-1.103.44-.282.27-.456.647-.456 1.06 0 .83.698 1.5 1.559 1.5H36.44c.43 0 .82-.168 1.102-.44"/>
        <path id="lq28v33rdi" d="M9.559 44H36.44c.43 0 .82-.168 1.102-.44.282-.27.457-.645.457-1.06 0-.828-.697-1.5-1.56-1.5H9.56c-.43 0-.82.168-1.103.44-.282.272-.456.645-.456 1.06 0 .83.698 1.5 1.559 1.5"/>
        <path id="8n3bqx5j3j" d="M8.038 23.45c0 .006 0 .013.002.019l.008.085c0 .033 0 .067.003.1.01.111.025.22.038.33l.003.03c.023.187.05.374.081.56l.002.013c.031.186.067.372.107.557l.003.017c.04.179.082.357.128.533l.01.035c.044.168.093.334.145.5.006.019.01.038.017.057.051.16.105.318.163.476.056.156.117.31.18.465l.036.09c.057.138.119.273.18.408l.042.093c.062.13.127.258.192.385l.055.109c.063.12.13.24.198.358l.073.13c.064.109.13.218.199.326l.097.155c.064.098.129.194.195.29.043.062.085.124.13.185.06.085.12.168.183.25.055.074.111.146.167.218l.169.21c.069.084.14.167.211.25l.148.168c.084.093.17.185.258.277l.126.132c.025.025.048.051.074.076.062.063.127.122.19.183.04.038.078.078.12.116l.048.043c.101.093.204.184.308.274l.13.113c.119.1.24.197.36.292l.089.069c.137.105.276.207.416.306l.043.03C15.444 34.215 17.911 35 20.5 35l.12-.003c.124-.001.25-.005.374-.01.088-.002.176-.007.264-.012.11-.007.219-.015.328-.024.116-.01.232-.022.347-.035l.23-.028c.167-.023.334-.048.5-.077.02-.004.043-.007.064-.012 2.49-.445 4.785-1.634 6.612-3.461 1.678-1.677 2.816-3.748 3.337-6.004l.016-.073c.035-.156.068-.314.097-.472.02-.103.037-.207.053-.31.014-.081.026-.163.037-.244.021-.153.04-.306.057-.461l.009-.104c.017-.177.03-.356.039-.535l.001-.042c.01-.197.015-.395.015-.594 0-.207-.005-.414-.015-.62-.006-.126-.018-.25-.027-.375-.006-.08-.01-.16-.018-.238-.016-.169-.038-.337-.062-.504l-.012-.102c-.028-.193-.061-.385-.098-.575l-.005-.023c-.311-1.587-.928-3.09-1.82-4.438l-.004-.007c-.106-.16-.216-.317-.33-.472l-.02-.03c-.11-.147-.222-.292-.337-.435l-.04-.05c-.11-.137-.226-.27-.343-.403l-.058-.067c-.114-.127-.232-.251-.352-.374l-.064-.069-.01-.009c-.016-.016-.03-.033-.046-.048-.108-.108-.22-.212-.33-.316l-.067-.062c-.127-.118-.259-.231-.39-.342l-.07-.061c-.133-.11-.268-.216-.404-.32-.024-.019-.048-.039-.073-.057-.137-.104-.277-.203-.418-.3l-.074-.053c-.145-.099-.292-.193-.44-.285-.023-.013-.044-.028-.066-.042-.158-.097-.319-.189-.48-.278l-.04-.022c-1.753-.96-3.725-1.487-5.772-1.522l-.06.002C20.602 10 20.551 10 20.5 10 13.608 10 8 15.607 8 22.5c0 .307.012.617.034.916l.004.034M19.2 13.068v4.37c0 .559.313 1.071.81 1.325.023.012 2.26 1.205 2.723 3.217.277 1.202-.138 2.55-1.234 4.008-.494.658-.361 1.592.296 2.085.657.494 1.591.362 2.085-.296 1.648-2.193 2.239-4.369 1.755-6.466-.55-2.385-2.378-3.957-3.457-4.7v-3.48c4.444.799 7.843 4.716 7.843 9.368 0 .163-.004.325-.012.486l-.005.066c-.008.14-.018.28-.032.42v.005c-.492 4.793-4.552 8.545-9.473 8.545-4.416 0-8.2-3.064-9.238-7.224h1.592c.822 0 1.489-.666 1.489-1.489 0-.822-.667-1.488-1.49-1.488h-1.848c.32-4.502 3.78-8.146 8.196-8.752"/>
        <linearGradient id="5vnsnx34id" x1="50%" x2="50%" y1="15.824%" y2="100%">
            <stop offset="0%" stop-color="#2079D4"/>
            <stop offset="100%" stop-color="#004E9C"/>
        </linearGradient>
        <linearGradient id="7o1359hfsf" x1="50%" x2="50%" y1="15.824%" y2="100%">
            <stop offset="0%" stop-color="#2079D4"/>
            <stop offset="100%" stop-color="#004E9C"/>
        </linearGradient>
        <linearGradient id="pdh7w3kcjh" x1="50%" x2="50%" y1="15.824%" y2="100%">
            <stop offset="0%" stop-color="#2079D4"/>
            <stop offset="100%" stop-color="#004E9C"/>
        </linearGradient>
        <linearGradient id="8plab11n0k" x1="50%" x2="50%" y1="15.824%" y2="100%">
            <stop offset="0%" stop-color="#2079D4"/>
            <stop offset="100%" stop-color="#004E9C"/>
        </linearGradient>
        <linearGradient id="mbktc4bvgl" x1="50%" x2="50%" y1="50%" y2="100%">
            <stop offset="0%" stop-color="#2079D4"/>
            <stop offset="100%" stop-color="#004E9C"/>
        </linearGradient>
    </defs>
    <g fill="none" fill-rule="evenodd">
        <g>
            <g>
                <g transform="translate(-51 -679) translate(51 679)">
                    <mask id="z5j9e1hfdb" fill="#fff">
                        <use xlink:href="#un00wy007a"/>
                    </mask>
                    <g mask="url(#z5j9e1hfdb)">
                        <use fill="#000" xlink:href="#jzrynjugac"/>
                        <use fill="url(#5vnsnx34id)" xlink:href="#jzrynjugac"/>
                    </g>
                </g>
                <g transform="translate(-51 -679) translate(51 679)">
                    <use fill="#000" xlink:href="#aqyttpo3ye"/>
                    <use fill="url(#7o1359hfsf)" xlink:href="#aqyttpo3ye"/>
                </g>
                <g transform="translate(-51 -679) translate(51 679)">
                    <use fill="#000" xlink:href="#ollyabj8ag"/>
                    <use fill="url(#pdh7w3kcjh)" xlink:href="#ollyabj8ag"/>
                </g>
                <g transform="translate(-51 -679) translate(51 679)">
                    <use fill="#000" xlink:href="#lq28v33rdi"/>
                    <use fill="url(#pdh7w3kcjh)" xlink:href="#lq28v33rdi"/>
                </g>
                <g transform="translate(-51 -679) translate(51 679)">
                    <use fill="#000" xlink:href="#8n3bqx5j3j"/>
                    <use fill="url(#8plab11n0k)" xlink:href="#8n3bqx5j3j"/>
                </g>
                <path fill="url(#mbktc4bvgl)" d="M46.491 48H87.51c.823 0 1.491-.668 1.491-1.49 0-.824-.668-1.491-1.492-1.491H76.9v-6.912c0-.824-.668-1.491-1.491-1.491h-5.175v-3.129c0-.823-.667-1.49-1.491-1.49h-5.174V27.5c0-.823-.668-1.49-1.492-1.49h-6.665c-.823 0-1.491.667-1.491 1.49v17.519h-5.938V8.49c0-.823-.668-1.491-1.492-1.491C45.668 7 45 7.668 45 8.49v38.02c0 .822.668 1.49 1.491 1.49zm23.743-2.981h3.683v-5.422h-3.683v5.422zm-2.982-10.041v10.041h-3.683V34.978h3.683zM56.904 28.99h3.682v16.028h-3.682V28.99z" transform="translate(-51 -679) translate(51 679)"/>
            </g>
        </g>
    </g>
</svg>
