<?xml version="1.0" standalone="no"?>
<!DOCTYPE svg PUBLIC "-//W3C//DTD SVG 20010904//EN"
 "http://www.w3.org/TR/2001/REC-SVG-20010904/DTD/svg10.dtd">
<svg version="1.0" xmlns="http://www.w3.org/2000/svg"
 width="7972.000000pt" height="7972.000000pt" viewBox="0 0 7972.000000 7972.000000"
 preserveAspectRatio="xMidYMid meet">

<g transform="translate(0.000000,7972.000000) scale(0.100000,-0.100000)"
fill="#000000" stroke="none">
<path d="M57840 53600 c-913 -63 -1875 -347 -2885 -852 -1427 -714 -2674
-1791 -3505 -3028 -224 -334 -358 -576 -455 -820 -488 -1233 -437 -3006 155
-5420 l57 -235 -5 -158 c-7 -254 22 -784 54 -957 53 -289 206 -745 341 -1014
134 -268 348 -494 732 -771 l54 -39 -6 35 c-4 19 -16 122 -27 229 -70 686 -79
1386 -24 1920 23 230 72 541 86 555 2 3 126 -6 274 -20 493 -45 746 -57 1325
-62 559 -5 848 2 1259 32 2418 179 4478 959 6073 2297 267 225 683 625 898
865 l65 73 22 -69 c52 -162 189 -393 358 -606 111 -139 449 -477 619 -619 864
-720 1808 -1197 3020 -1526 104 -28 191 -52 192 -54 5 -5 43 -158 67 -274 147
-698 166 -1610 55 -2591 -11 -96 -18 -175 -16 -177 3 -4 218 158 297 224 221
184 381 375 480 571 49 100 147 344 203 506 97 284 150 517 167 735 27 356 38
791 21 850 -4 14 3 78 16 147 182 988 211 2143 92 3688 -95 1240 -334 2226
-739 3050 -479 971 -1105 1628 -1961 2056 -379 190 -761 307 -1189 366 -194
26 -599 24 -790 -6 -231 -35 -427 -86 -605 -156 l-86 -34 -62 29 c-34 15 -125
58 -202 95 -1482 712 -2583 1063 -3630 1155 -163 15 -642 20 -795 10z m2805
-8471 c-153 -155 -406 -351 -660 -511 -1008 -634 -2752 -1179 -4520 -1412
-309 -41 -842 -93 -852 -83 -2 2 59 18 134 36 76 18 316 77 533 132 2440 610
4460 1312 5340 1855 47 29 87 53 90 53 2 1 -27 -31 -65 -70z"/>
<path d="M20100 49170 c-1434 -50 -2820 -414 -4035 -1058 -727 -386 -1229
-850 -1680 -1553 -533 -829 -946 -1870 -1161 -2924 -139 -682 -190 -1228 -181
-1952 9 -702 74 -1243 189 -1560 29 -81 89 -185 121 -211 11 -10 66 -14 194
-17 306 -6 537 -60 724 -170 177 -104 333 -262 455 -463 225 -370 245 -398
299 -431 87 -53 189 -84 275 -85 90 -1 141 20 175 73 43 66 232 702 645 2176
354 1263 545 1833 653 1953 11 12 24 22 28 22 4 0 40 -46 80 -102 162 -227
399 -487 619 -681 666 -585 1433 -942 2244 -1042 123 -15 185 -19 686 -36 937
-31 2298 -158 3985 -370 768 -96 1234 -190 1675 -336 581 -192 1162 -531 1502
-875 255 -258 503 -629 730 -1088 61 -124 113 -227 115 -229 7 -9 114 73 170
132 189 197 303 486 355 897 20 158 17 689 -5 910 -44 431 -131 941 -253 1480
-120 530 -352 1414 -441 1685 -245 746 -821 2096 -1108 2595 -433 756 -1074
1400 -1925 1935 -1447 911 -3298 1388 -5130 1325z"/>
<path d="M62859 42839 c-290 -27 -577 -157 -757 -343 -79 -81 -92 -106 -92
-173 0 -59 25 -109 69 -138 85 -55 166 -42 244 41 107 114 248 194 422 240 86
23 122 27 250 27 106 1 178 -4 245 -17 151 -29 375 -107 560 -197 161 -77 173
-81 224 -77 95 8 156 76 156 173 0 92 -38 130 -215 214 -414 199 -777 281
-1106 250z"/>
<path d="M57120 42204 c-266 -41 -534 -149 -727 -295 -64 -48 -86 -87 -86
-156 0 -70 37 -127 100 -155 70 -31 119 -21 207 40 138 96 297 165 481 208 65
15 119 19 285 19 190 0 213 -2 313 -28 169 -42 294 -98 436 -194 56 -38 70
-43 120 -43 86 0 147 44 171 123 25 83 -14 156 -119 225 -210 138 -430 221
-681 257 -131 18 -374 18 -500 -1z"/>
<path d="M57276 41265 c-423 -107 -655 -769 -450 -1283 44 -108 93 -182 173
-263 388 -388 943 -9 978 668 20 408 -156 757 -437 864 -70 26 -189 33 -264
14z"/>
<path d="M62727 41179 c-232 -34 -442 -271 -529 -597 -29 -111 -37 -373 -14
-496 36 -191 114 -346 230 -461 79 -78 144 -117 231 -140 325 -84 645 201 731
654 24 123 22 329 -3 451 -38 180 -115 331 -223 440 -121 121 -265 172 -423
149z"/>
<path d="M20978 40069 c-248 -32 -544 -218 -512 -322 12 -42 45 -67 87 -67 32
0 48 8 94 50 71 62 170 115 270 142 121 33 324 30 455 -5 71 -20 104 -24 122
-18 57 22 75 103 33 145 -63 63 -345 101 -549 75z"/>
<path d="M26055 40066 c-111 -18 -196 -44 -222 -69 -47 -42 -24 -128 40 -150
10 -4 62 5 115 20 123 33 324 38 437 10 98 -25 220 -88 285 -147 47 -43 60
-50 97 -50 52 0 83 34 83 89 0 31 -8 45 -52 88 -180 175 -482 256 -783 209z"/>
<path d="M21247 39290 c-185 -66 -333 -249 -398 -495 -30 -114 -37 -328 -14
-450 56 -302 247 -519 471 -533 266 -17 494 212 568 571 18 88 21 280 5 377
-36 227 -169 430 -331 509 -90 45 -212 53 -301 21z"/>
<path d="M26009 39216 c-155 -43 -297 -186 -378 -379 -82 -198 -94 -476 -29
-677 58 -182 170 -326 303 -391 66 -32 75 -34 175 -34 99 0 109 2 173 33 174
86 311 286 362 527 22 107 23 304 0 409 -78 369 -336 586 -606 512z"/>
<path d="M27978 38503 c-19 -42 -34 -107 -53 -238 -55 -375 -160 -841 -279
-1230 -754 -2478 -2553 -4416 -4791 -5160 -161 -54 -336 -105 -532 -155 l-43
-11 0 -1009 0 -1010 36 -56 c183 -287 265 -622 251 -1034 -8 -213 -31 -404
-102 -835 -66 -401 -81 -528 -96 -800 -19 -372 7 -809 77 -1265 74 -480 160
-852 383 -1650 225 -809 298 -1137 345 -1560 13 -112 36 -461 36 -548 l0 -24
48 27 c441 255 921 697 1241 1144 255 356 413 687 509 1066 151 594 210 1216
213 2245 1 365 2 381 15 305 71 -399 266 -821 531 -1150 79 -99 314 -334 354
-355 l20 -11 -19 38 c-95 188 -181 510 -218 814 -20 164 -22 545 -5 739 38
417 105 771 310 1635 125 524 153 628 236 880 103 313 232 634 443 1105 287
643 475 1129 578 1495 16 57 18 59 25 31 39 -141 54 -913 23 -1126 -5 -32 -4
-34 9 -15 73 102 359 648 465 886 363 815 557 1597 603 2434 12 224 7 778 -11
1125 -49 948 -182 1853 -395 2695 -64 255 -160 598 -174 622 -5 9 -16 -5 -33
-44z"/>
<path d="M45613 38212 c-325 -359 -1179 -1336 -1181 -1352 -5 -32 16 -60 46
-60 15 0 32 4 38 8 10 7 1179 1330 1237 1400 32 40 34 55 7 82 -35 35 -54 25
-147 -78z"/>
<path d="M13945 36600 c-74 -34 -214 -69 -324 -81 -136 -15 -277 -1 -396 39
l-82 27 -12 -125 c-82 -860 -410 -1763 -979 -2695 -286 -468 -624 -940 -1251
-1745 -710 -910 -935 -1212 -1191 -1594 -602 -902 -793 -1623 -589 -2234 17
-51 32 -92 34 -90 2 2 18 39 35 83 78 197 210 428 358 624 98 131 341 386 354
373 23 -23 51 -210 51 -342 1 -199 -30 -362 -112 -601 -55 -159 -115 -296
-311 -704 -196 -408 -255 -545 -320 -744 -113 -344 -134 -622 -70 -931 152
-728 783 -1461 1645 -1911 136 -70 362 -169 388 -169 9 0 69 73 134 163 64 89
439 601 832 1137 891 1216 1041 1422 1414 1945 361 506 398 554 518 674 188
187 398 334 619 431 41 18 176 81 300 141 225 108 226 109 1450 522 1079 365
1292 440 1785 632 427 167 583 223 655 237 60 12 100 25 108 35 9 13 12 239
12 1049 l0 1033 -57 16 c-952 273 -1896 807 -2693 1521 -160 143 -536 525
-664 674 -613 715 -1073 1475 -1427 2360 -67 167 -84 200 -118 233 -22 20 -44
37 -48 36 -4 0 -26 -9 -48 -19z"/>
<path d="M45846 36036 c-743 -121 -881 -146 -892 -161 -19 -25 -18 -38 5 -66
l19 -24 898 144 c495 80 909 150 922 158 46 28 17 94 -41 92 -18 0 -428 -65
-911 -143z"/>
<path d="M44775 34810 c-15 -16 -17 -26 -9 -47 8 -23 116 -76 906 -440 771
-355 900 -412 922 -404 31 13 42 45 23 74 -16 24 -1767 837 -1803 837 -12 0
-29 -9 -39 -20z"/>
</g>
</svg>
