<svg id="Capa_1" enable-background="new 0 0 512 512" height="512" viewBox="0 0 512 512" width="512" xmlns="http://www.w3.org/2000/svg"><g><g><path d="m421.667 504.5h-331.334c-11.158 0-20.203-9.045-20.203-20.203v-456.594c0-11.158 9.045-20.203 20.203-20.203h242.152c5.358 0 10.497 2.129 14.286 5.917l89.181 89.181c3.789 3.789 5.917 8.928 5.917 14.286v367.412c.001 11.159-9.044 20.204-20.202 20.204z" fill="#edf6ff"/></g><g><path d="m102.455 239.837h307.089v32.325h-307.089z" fill="#4172ca"/></g><g><path d="m435.953 102.599-89.181-89.182c-3.789-3.789-8.928-5.917-14.286-5.917h-15.876v80.813c0 24.547 19.9 44.447 44.447 44.447h46.467c5.579 0 10.102 4.523 10.102 10.102v342.445c0 8.961-5.84 16.549-13.917 19.193h17.958c11.158 0 20.203-9.045 20.203-20.203v-367.412c0-5.358-2.129-10.497-5.917-14.286z" fill="#ddebfd"/></g><g><path d="m361.057 108.516h78.974c-.993-2.178-2.354-4.192-4.079-5.917l-89.181-89.181c-1.725-1.725-3.739-3.086-5.917-4.078v78.974c0 11.157 9.045 20.202 20.203 20.202z" fill="#bed9fd"/></g><g><g><path d="m264.081 120.638c0-44.632-36.181-80.813-80.813-80.813v80.813z" fill="#e175a5"/></g><g><path d="m183.268 120.638 57.143 57.143c14.624-14.624 23.67-34.828 23.67-57.143z" fill="#a2f5c3"/></g><g><path d="m183.268 120.638v-80.813c-44.632 0-80.813 36.181-80.813 80.813s36.181 80.813 80.813 80.813c22.316 0 42.519-9.045 57.143-23.67z" fill="#f7e365"/></g></g><g><g><g><circle cx="118.618" cy="320.65" fill="#a2f5c3" r="16.163"/></g></g></g><g><g><g><circle cx="118.618" cy="385.301" fill="#a2f5c3" r="16.163"/></g></g></g><g><g><g><circle cx="118.618" cy="458.033" fill="#a2f5c3" r="16.163"/></g></g></g><g><g><g><circle cx="292.366" cy="320.65" fill="#a2f5c3" r="16.163"/></g></g></g><g><g><g><circle cx="292.366" cy="385.301" fill="#a2f5c3" r="16.163"/></g></g></g><g><g><g><circle cx="292.366" cy="458.033" fill="#a2f5c3" r="16.163"/></g></g></g><g><path d="m162.28 239.84c0 4.142 3.357 7.5 7.5 7.5h232.26v17.32h-292.08v-17.32h24.82c4.143 0 7.5-3.358 7.5-7.5s-3.357-7.5-7.5-7.5h-32.32c-4.143 0-7.5 3.358-7.5 7.5v32.32c0 4.142 3.357 7.5 7.5 7.5h307.08c4.143 0 7.5-3.358 7.5-7.5v-32.32c0-4.142-3.357-7.5-7.5-7.5h-239.76c-4.142 0-7.5 3.358-7.5 7.5z"/><path d="m183.269 32.325c-48.696 0-88.313 39.617-88.313 88.313s39.617 88.313 88.313 88.313c48.695 0 88.312-39.617 88.312-88.313s-39.617-88.313-88.312-88.313zm72.931 80.813h-65.431v-65.432c34.448 3.517 61.915 30.983 65.431 65.432zm-16.089 53.736-38.736-38.736h54.825c-1.49 14.598-7.288 27.937-16.089 38.736zm-130.156-46.236c0-37.893 28.898-69.164 65.813-72.932v72.932c0 2.071.839 3.946 2.196 5.303l51.539 51.539c-12.624 10.288-28.719 16.47-46.236 16.47-40.423.001-73.312-32.887-73.312-73.312z"/><path d="m441.254 97.297-89.181-89.18c-5.157-5.159-12.295-8.117-19.583-8.117h-242.16c-15.274 0-27.7 12.426-27.7 27.7v373.76c0 4.142 3.357 7.5 7.5 7.5s7.5-3.358 7.5-7.5v-373.76c0-7.003 5.697-12.7 12.7-12.7h242.16c.289 0 .576.023.863.044v73.269c0 15.275 12.428 27.703 27.703 27.703h73.27c.02.287.043.575.043.864v71.12c0 4.142 3.357 7.5 7.5 7.5s7.5-3.358 7.5-7.5v-71.12c.001-7.287-2.957-14.425-8.115-19.583zm-92.9-8.984v-62.702l75.406 75.405h-62.703c-7.005 0-12.703-5.699-12.703-12.703z"/><path d="m441.87 215.5c-4.143 0-7.5 3.358-7.5 7.5v261.3c0 7.003-5.697 12.7-12.7 12.7h-331.34c-7.003 0-12.7-5.697-12.7-12.7v-47.84c0-4.142-3.357-7.5-7.5-7.5s-7.5 3.358-7.5 7.5v47.84c0 15.274 12.426 27.7 27.7 27.7h331.34c15.274 0 27.7-12.426 27.7-27.7v-261.3c0-4.142-3.357-7.5-7.5-7.5z"/><path d="m306.508 161.626h-10.102c-4.143 0-7.5 3.358-7.5 7.5s3.357 7.5 7.5 7.5h10.102c4.143 0 7.5-3.358 7.5-7.5s-3.358-7.5-7.5-7.5z"/><path d="m409.545 176.626c4.143 0 7.5-3.358 7.5-7.5s-3.357-7.5-7.5-7.5h-70.712c-4.143 0-7.5 3.358-7.5 7.5s3.357 7.5 7.5 7.5z"/><path d="m288.909 201.451c0 4.142 3.357 7.5 7.5 7.5h46.465c4.143 0 7.5-3.358 7.5-7.5s-3.357-7.5-7.5-7.5h-46.465c-4.142 0-7.5 3.358-7.5 7.5z"/><path d="m118.618 344.313c13.047 0 23.662-10.615 23.662-23.663s-10.615-23.663-23.662-23.663c-13.048 0-23.663 10.615-23.663 23.663s10.615 23.663 23.663 23.663zm0-32.325c4.776 0 8.662 3.886 8.662 8.663s-3.886 8.663-8.662 8.663-8.663-3.886-8.663-8.663 3.887-8.663 8.663-8.663z"/><path d="m235.797 329.313h-68.691c-4.143 0-7.5 3.358-7.5 7.5s3.357 7.5 7.5 7.5h68.691c4.143 0 7.5-3.358 7.5-7.5s-3.358-7.5-7.5-7.5z"/><path d="m167.105 311.988h10.102c4.143 0 7.5-3.358 7.5-7.5s-3.357-7.5-7.5-7.5h-10.102c-4.143 0-7.5 3.358-7.5 7.5s3.358 7.5 7.5 7.5z"/><path d="m235.797 296.988h-26.265c-4.143 0-7.5 3.358-7.5 7.5s3.357 7.5 7.5 7.5h26.265c4.143 0 7.5-3.358 7.5-7.5s-3.358-7.5-7.5-7.5z"/><path d="m118.618 408.963c13.047 0 23.662-10.615 23.662-23.663s-10.615-23.663-23.662-23.663c-13.048 0-23.663 10.615-23.663 23.663s10.615 23.663 23.663 23.663zm0-32.325c4.776 0 8.662 3.886 8.662 8.663s-3.886 8.663-8.662 8.663-8.663-3.886-8.663-8.663 3.887-8.663 8.663-8.663z"/><path d="m235.797 393.963h-68.691c-4.143 0-7.5 3.358-7.5 7.5s3.357 7.5 7.5 7.5h68.691c4.143 0 7.5-3.358 7.5-7.5s-3.358-7.5-7.5-7.5z"/><path d="m167.105 376.638h10.102c4.143 0 7.5-3.358 7.5-7.5s-3.357-7.5-7.5-7.5h-10.102c-4.143 0-7.5 3.358-7.5 7.5s3.358 7.5 7.5 7.5z"/><path d="m235.797 361.638h-26.265c-4.143 0-7.5 3.358-7.5 7.5s3.357 7.5 7.5 7.5h26.265c4.143 0 7.5-3.358 7.5-7.5s-3.358-7.5-7.5-7.5z"/><path d="m118.618 481.695c13.047 0 23.662-10.615 23.662-23.663s-10.615-23.663-23.662-23.663c-13.048 0-23.663 10.615-23.663 23.663s10.615 23.663 23.663 23.663zm0-32.325c4.776 0 8.662 3.886 8.662 8.663s-3.886 8.663-8.662 8.663-8.663-3.886-8.663-8.663 3.887-8.663 8.663-8.663z"/><path d="m167.105 481.695h68.691c4.143 0 7.5-3.358 7.5-7.5s-3.357-7.5-7.5-7.5h-68.691c-4.143 0-7.5 3.358-7.5 7.5s3.358 7.5 7.5 7.5z"/><path d="m167.105 449.37h10.102c4.143 0 7.5-3.358 7.5-7.5s-3.357-7.5-7.5-7.5h-10.102c-4.143 0-7.5 3.358-7.5 7.5s3.358 7.5 7.5 7.5z"/><path d="m235.797 434.37h-26.265c-4.143 0-7.5 3.358-7.5 7.5s3.357 7.5 7.5 7.5h26.265c4.143 0 7.5-3.358 7.5-7.5s-3.358-7.5-7.5-7.5z"/><path d="m292.366 296.988c-13.048 0-23.663 10.615-23.663 23.663s10.615 23.663 23.663 23.663c13.047 0 23.662-10.615 23.662-23.663s-10.615-23.663-23.662-23.663zm0 32.325c-4.776 0-8.663-3.886-8.663-8.663s3.887-8.663 8.663-8.663 8.662 3.886 8.662 8.663-3.885 8.663-8.662 8.663z"/><path d="m409.545 329.313h-68.691c-4.143 0-7.5 3.358-7.5 7.5s3.357 7.5 7.5 7.5h68.691c4.143 0 7.5-3.358 7.5-7.5s-3.357-7.5-7.5-7.5z"/><path d="m340.854 311.988h10.102c4.143 0 7.5-3.358 7.5-7.5s-3.357-7.5-7.5-7.5h-10.102c-4.143 0-7.5 3.358-7.5 7.5s3.357 7.5 7.5 7.5z"/><path d="m409.545 296.988h-26.265c-4.143 0-7.5 3.358-7.5 7.5s3.357 7.5 7.5 7.5h26.265c4.143 0 7.5-3.358 7.5-7.5s-3.357-7.5-7.5-7.5z"/><path d="m292.366 361.638c-13.048 0-23.663 10.615-23.663 23.663s10.615 23.663 23.663 23.663c13.047 0 23.662-10.615 23.662-23.663s-10.615-23.663-23.662-23.663zm0 32.325c-4.776 0-8.663-3.886-8.663-8.663s3.887-8.663 8.663-8.663 8.662 3.886 8.662 8.663-3.885 8.663-8.662 8.663z"/><path d="m409.545 393.963h-68.691c-4.143 0-7.5 3.358-7.5 7.5s3.357 7.5 7.5 7.5h68.691c4.143 0 7.5-3.358 7.5-7.5s-3.357-7.5-7.5-7.5z"/><path d="m340.854 376.638h10.102c4.143 0 7.5-3.358 7.5-7.5s-3.357-7.5-7.5-7.5h-10.102c-4.143 0-7.5 3.358-7.5 7.5s3.357 7.5 7.5 7.5z"/><path d="m409.545 361.638h-26.265c-4.143 0-7.5 3.358-7.5 7.5s3.357 7.5 7.5 7.5h26.265c4.143 0 7.5-3.358 7.5-7.5s-3.357-7.5-7.5-7.5z"/><path d="m292.366 434.37c-13.048 0-23.663 10.615-23.663 23.663s10.615 23.663 23.663 23.663c13.047 0 23.662-10.615 23.662-23.663s-10.615-23.663-23.662-23.663zm0 32.325c-4.776 0-8.663-3.886-8.663-8.663s3.887-8.663 8.663-8.663 8.662 3.886 8.662 8.663-3.885 8.663-8.662 8.663z"/><path d="m340.854 481.695h68.691c4.143 0 7.5-3.358 7.5-7.5s-3.357-7.5-7.5-7.5h-68.691c-4.143 0-7.5 3.358-7.5 7.5s3.357 7.5 7.5 7.5z"/><path d="m340.854 449.37h10.102c4.143 0 7.5-3.358 7.5-7.5s-3.357-7.5-7.5-7.5h-10.102c-4.143 0-7.5 3.358-7.5 7.5s3.357 7.5 7.5 7.5z"/><path d="m409.545 434.37h-26.265c-4.143 0-7.5 3.358-7.5 7.5s3.357 7.5 7.5 7.5h26.265c4.143 0 7.5-3.358 7.5-7.5s-3.357-7.5-7.5-7.5z"/></g></g></svg>