<svg id="Layer_1" enable-background="new 0 0 256 256" height="512" viewBox="0 0 256 256" width="512" xmlns="http://www.w3.org/2000/svg"><g><path d="m136.94 128.997-15.642-15.642c-1.364-1.364-3.576-1.364-4.94 0l-69.153 69.153c-1.364 1.364-1.364 3.576 0 4.94l15.642 15.642c1.364 1.364 3.576 1.364 4.94 0l69.153-69.153c1.364-1.365 1.364-3.576 0-4.94z" fill="#e0ebfc"/><path d="m206.368 82.62-38.693-38.693c-1.819-1.819-4.767-1.819-6.586 0l-106.474 106.474c-4.092 4.092-4.092 10.727 0 14.819l30.46 30.46c4.092 4.092 10.727 4.092 14.819 0l106.474-106.474c1.819-1.819 1.819-4.767 0-6.586z" fill="#e0ebfc"/><path d="m140.942 77.566-77.935 77.935c-1.364 1.364-1.364 3.576 0 4.94l26.847 26.847c1.364 1.364 3.576 1.364 4.94 0l77.935-77.935z" fill="#a4c9ff"/><path d="m179.653 24.686h17.464v74.448h-17.464z" fill="#6bdddd" transform="matrix(-.707 -.707 .707 -.707 277.817 238.895)"/><path d="m201.535 10.068 38.693 38.693c1.819 1.819 1.819 4.767 0 6.586l-5.763 5.763c-1.819 1.819-4.767 1.819-6.586 0l-38.693-38.693c-1.819-1.819-1.819-4.767 0-6.586l5.763-5.763c1.818-1.819 4.767-1.819 6.586 0z" fill="#4671c6"/><path d="m150.547 67.961-9.605 9.605 31.787 31.787 9.605-9.605c.909-.909.909-2.384 0-3.293l-28.494-28.494c-.91-.909-2.384-.909-3.293 0z" fill="#4671c6"/><g><path d="m155.866 188.295v52.844c0 3.398 2.755 6.153 6.153 6.153h48.056c3.398 0 6.153-2.755 6.153-6.153v-52.844c0-2.347-1.056-4.569-2.875-6.052l-12.948-10.55v-12.893h-14.358-14.358v12.893l-12.948 10.55c-1.819 1.483-2.875 3.705-2.875 6.052z" fill="#a4c9ff"/><path d="m155.866 192.791h60.363v41.902h-60.363z" fill="#e0ebfc"/><path d="m198.39 208.877h-7.478v-7.477c0-.971-.787-1.758-1.758-1.758h-6.213c-.971 0-1.758.787-1.758 1.758v7.478h-7.478c-.971 0-1.758.787-1.758 1.758v6.213c0 .971.787 1.758 1.758 1.758h7.478v7.478c0 .971.787 1.758 1.758 1.758h6.213c.971 0 1.758-.787 1.758-1.758v-7.478h7.478c.971 0 1.758-.787 1.758-1.758v-6.213c0-.971-.787-1.759-1.758-1.759z" fill="#f9a7a7"/><path d="m203.395 167.58h-34.695c-1.916 0-3.469-1.553-3.469-3.469v-10.642c0-1.916 1.553-3.469 3.469-3.469h34.695c1.916 0 3.469 1.553 3.469 3.469v10.642c0 1.915-1.553 3.469-3.469 3.469z" fill="#4671c6"/></g><g><path d="m241.642 47.347-38.694-38.693c-2.597-2.597-6.819-2.595-9.414 0l-5.763 5.763c-2.596 2.596-2.596 6.818 0 9.414l11.758 11.758-18.683 18.683-11.758-11.758c-2.597-2.596-6.819-2.596-9.414 0l-106.474 106.474c-4.865 4.865-4.865 12.781 0 17.646l3.526 3.526-10.936 10.934c-2.141 2.143-2.14 5.627.001 7.768l6.407 6.407-39.2 39.2c-.781.781-.781 2.047 0 2.828.391.391.902.586 1.414.586s1.023-.195 1.414-.586l39.2-39.2 6.407 6.407c1.07 1.07 2.477 1.605 3.883 1.605 1.407 0 2.813-.535 3.885-1.605l10.935-10.936 3.525 3.525c2.356 2.357 5.49 3.655 8.823 3.655s6.467-1.298 8.823-3.655l106.476-106.473c2.594-2.597 2.594-6.819-.001-9.414l-11.758-11.758 18.683-18.683 11.758 11.758c1.298 1.298 3.002 1.947 4.707 1.947s3.409-.649 4.707-1.947l5.764-5.763c2.593-2.596 2.593-6.818-.001-9.413zm-79.139-2.005c1.035-1.035 2.721-1.037 3.758-.001l11.758 11.758-16.106 16.106-6.658-6.658c-1.688-1.688-4.434-1.688-6.121 0l-9.604 9.604-13.954 13.954-3.918-3.918zm10.227 61.183-28.959-28.959 8.19-8.19c.158-.158.307-.158.465 0l8.072 8.072 12.35 12.35 8.072 8.072c.079.079.096.17.096.232s-.017.153-.096.232zm-83.36 46.167-10.363-10.363 13.637-13.637 10.363 10.363c.781.781 2.047.781 2.828 0s.781-2.047 0-2.828l-10.363-10.363 13.637-13.637 10.363 10.363c.781.781 2.047.781 2.828 0s.781-2.047 0-2.828l-10.363-10.363 13.637-13.637 10.363 10.363c.781.781 2.047.781 2.828 0s.781-2.047 0-2.828l-10.363-10.363 12.54-12.54 28.959 28.959-76.522 76.521c-.563.564-1.546.564-2.11 0l-26.847-26.847c-.582-.582-.583-1.529-.001-2.111l11.759-11.759 10.363 10.363c.781.781 2.047.781 2.828 0 .78-.781.78-2.047-.001-2.828zm-3.471-30.746 3.918 3.918-13.637 13.636-3.918-3.918zm16.465-16.465 3.918 3.918-13.637 13.637-3.918-3.918zm16.464-16.465 3.918 3.918-13.637 13.637-3.918-3.918zm45.912-12.983 16.106-16.106 9.521 9.521-16.106 16.106zm-98.367 125.642c-.583.582-1.53.582-2.111.001l-15.643-15.643c-.582-.582-.581-1.529 0-2.111l10.935-10.934 17.753 17.752zm138.581-117.641c1.035 1.036 1.035 2.722 0 3.758l-106.474 106.474c-1.602 1.602-3.73 2.483-5.995 2.483s-4.394-.882-5.995-2.483l-4.939-4.938s0-.001-.001-.001l-20.581-20.581c-.001-.001-.003-.002-.004-.004l-4.936-4.936c-3.306-3.306-3.306-8.685 0-11.99l13.405-13.405 3.918 3.918-11.759 11.759c-2.141 2.141-2.142 5.625 0 7.768l26.848 26.847c1.037 1.038 2.417 1.609 3.884 1.609 1.468 0 2.848-.572 3.884-1.609l77.936-77.935 9.604-9.604c1.688-1.688 1.688-4.434 0-6.121l-6.658-6.658 16.106-16.106zm-11.758-17.414-9.521-9.521 18.683-18.683 9.521 9.521zm45.618-12.687-5.763 5.763c-1.037 1.035-2.721 1.035-3.758 0-21.92-21.92-16.615-16.615-38.693-38.693-1.036-1.036-1.036-2.722 0-3.758l5.763-5.762c.519-.519 1.198-.777 1.879-.777s1.361.259 1.879.776l38.693 38.693c1.035 1.036 1.035 2.722 0 3.758z" fill="#3762cc"/></g><path d="m214.617 180.693-12.212-9.949v-1.164h.989c3.016 0 5.47-2.453 5.47-5.469v-10.643c0-3.016-2.454-5.47-5.47-5.47h-34.694c-3.016 0-5.47 2.454-5.47 5.47v10.643c0 3.016 2.454 5.469 5.47 5.469h.989v1.164l-12.212 9.949c-2.295 1.87-3.611 4.642-3.611 7.603v52.845c0 4.496 3.657 8.153 8.153 8.153h48.056c4.496 0 8.153-3.657 8.153-8.153 0-25.506 0-27.607 0-52.845.001-2.962-1.316-5.733-3.611-7.603zm-45.917-15.114c-.811 0-1.47-.659-1.47-1.469v-10.643c0-.811.659-1.47 1.47-1.47h34.694c.811 0 1.47.659 1.47 1.47v10.643c0 .81-.659 1.469-1.47 1.469-11.577 0-23.14 0-34.694 0zm45.529 75.561c0 2.29-1.863 4.153-4.153 4.153h-48.056c-2.29 0-4.153-1.863-4.153-4.153v-4.446h56.362zm0-8.446h-56.362v-37.902h56.362zm0-41.903h-56.362v-2.496c0-1.753.779-3.394 2.139-4.501l12.948-10.55c.998-.814.736-1.947.736-3.665h24.716c0 1.719-.262 2.851.736 3.665l12.948 10.55c1.359 1.107 2.139 2.748 2.139 4.501z" fill="#3762cc"/></g></svg>